<?xml version="1.0" encoding="UTF-8"?>
<svg version="1.1" xmlns="http://www.w3.org/2000/svg" width="512" height="512">
<path d="M0 0 C1.44728153 -0.00258604 2.89456234 -0.00559986 4.34184217 -0.0090034 C8.31042511 -0.01704881 12.27898993 -0.0188616 16.24758005 -0.01960087 C20.53136076 -0.02145575 24.81513217 -0.02900532 29.09890747 -0.03573608 C38.46283655 -0.04930303 47.82676135 -0.05534173 57.19069862 -0.05974674 C63.0418011 -0.06251226 68.89290193 -0.06675021 74.7440033 -0.07125092 C90.9556391 -0.08344206 107.16727359 -0.09374128 123.37891388 -0.09712601 C124.41599376 -0.09734557 125.45307364 -0.09756514 126.52158019 -0.09779136 C127.56109329 -0.09800964 128.60060639 -0.09822791 129.67161989 -0.09845281 C131.77794679 -0.09889627 133.88427369 -0.09934283 135.99060059 -0.09979248 C137.03540382 -0.10001391 138.08020705 -0.10023534 139.15667099 -0.10046348 C156.07547867 -0.10440911 172.99424323 -0.12185665 189.91303426 -0.145152 C207.2985708 -0.16889603 224.68408572 -0.18132927 242.06963873 -0.18249393 C251.82475478 -0.18340904 261.57981464 -0.18911987 271.33491516 -0.20731354 C279.64386817 -0.22275582 287.95274762 -0.22781075 296.26171225 -0.21957543 C300.49648184 -0.21568334 304.7311035 -0.21652755 308.96585464 -0.23063278 C312.85233431 -0.24345885 316.73855619 -0.2420988 320.62503594 -0.23004207 C322.02145293 -0.2281 323.41788873 -0.23109347 324.81427938 -0.23988643 C349.31077942 -0.38421338 371.55947371 7.69683129 389.89587402 24.14044189 C390.53009277 24.69216064 391.16431152 25.24387939 391.81774902 25.81231689 C405.93557842 38.89397533 417.13425978 60.62667506 418.02582586 79.95813382 C418.0281565 80.99700171 418.03048714 82.0358696 418.03288841 83.10621834 C418.03796296 84.30971117 418.0430375 85.513204 418.04826581 86.75316632 C418.04901245 88.73128176 418.04901245 88.73128176 418.04977417 90.74935913 C418.0537911 92.16731539 418.05822971 93.58527051 418.06305373 95.00322425 C418.07500029 98.90018957 418.08066327 102.79714252 418.08523488 106.69412255 C418.0911986 110.89758122 418.10280685 115.10102516 418.11352539 119.30447388 C418.138037 129.45903738 418.15267743 139.61360575 418.16558546 149.76818973 C418.16929916 152.63869767 418.17327227 155.50920512 418.17733812 158.37971258 C418.20258319 176.22149072 418.22462714 194.06326966 418.23706627 211.90506172 C418.23999578 216.03706999 418.24295746 220.16907822 418.24597168 224.30108643 C418.24671773 225.32802773 418.24746378 226.35496904 418.24823244 227.41302978 C418.26086889 244.02536821 418.29406907 260.6375992 418.33577351 277.24988748 C418.3782828 294.32349558 418.40177191 311.39704883 418.40698683 328.47070968 C418.41039143 338.04941572 418.42203335 347.62795406 418.45508957 357.20660782 C418.48321549 365.36986751 418.49403492 373.53292511 418.48289411 381.69622947 C418.47773875 385.85462679 418.48038803 390.01260178 418.50535965 394.17093658 C418.68768664 426.31333658 413.52937123 451.38503857 391.08337402 475.39044189 C372.46914558 493.07395892 348.99936676 500.29890363 323.79174805 500.28088379 C322.34446652 500.28346983 320.89718571 500.28648365 319.44990587 500.28988719 C315.48132294 500.2979326 311.51275812 500.29974539 307.544168 500.30048466 C303.26038729 500.30233954 298.97661588 500.30988911 294.69284058 500.31661987 C285.32891149 500.33018682 275.9649867 500.33622552 266.60104942 500.34063053 C260.74994695 500.34339605 254.89884611 500.347634 249.04774475 500.3521347 C232.83610895 500.36432585 216.62447446 500.37462507 200.41283417 500.3780098 C199.37575429 500.37822936 198.3386744 500.37844893 197.27016786 500.37867515 C196.23065476 500.37889343 195.19114165 500.3791117 194.12012815 500.3793366 C192.01380126 500.37978006 189.90747436 500.38022662 187.80114746 500.38067627 C186.75634423 500.3808977 185.711541 500.38111913 184.63507706 500.38134727 C167.71626937 500.3852929 150.79750482 500.40274043 133.87871379 500.42603579 C116.49317725 500.44977981 99.10766233 500.46221306 81.72210932 500.46337771 C71.96699327 500.46429282 62.21193341 500.47000366 52.45683289 500.48819733 C44.14787988 500.50363961 35.83900043 500.50869454 27.53003579 500.50045922 C23.2952662 500.49656713 19.06064455 500.49741134 14.8258934 500.51151657 C10.93941374 500.52434264 7.05319185 500.52298259 3.16671211 500.51092586 C1.77029512 500.50898379 0.37385932 500.51197726 -1.02253133 500.52077022 C-25.51903137 500.66509717 -47.76772566 492.5840525 -66.10412598 476.14044189 C-66.73834473 475.58872314 -67.37256348 475.03700439 -68.02600098 474.46856689 C-82.14136136 461.38919626 -93.35039482 439.64948549 -94.23292714 420.31929797 C-94.23471571 419.27880386 -94.23650428 418.23830975 -94.23834705 417.16628551 C-94.2428049 415.96094258 -94.24726274 414.75559965 -94.25185567 413.51373118 C-94.25176638 412.17959987 -94.25157655 410.84546856 -94.251297 409.51133728 C-94.25459774 408.09124314 -94.25832375 406.67114994 -94.26243848 405.25105792 C-94.27244315 401.34829852 -94.27617282 397.4455545 -94.27882779 393.54278409 C-94.28273553 389.33324938 -94.29231371 385.12372679 -94.30104065 380.91419983 C-94.32079437 370.74630072 -94.33087103 360.57840064 -94.33976844 350.41048715 C-94.34415414 345.61835666 -94.34952031 340.82622728 -94.35475731 336.03409767 C-94.3717704 320.09619597 -94.38626269 304.15829494 -94.39350605 288.22038555 C-94.39541585 284.08525784 -94.3973362 279.95013013 -94.39929199 275.81500244 C-94.39977573 274.7872742 -94.40025947 273.75954597 -94.40075787 272.70067445 C-94.4090511 256.06692777 -94.43437571 239.43325316 -94.46687267 222.79953792 C-94.49998887 205.70899338 -94.51795903 188.61848541 -94.52115029 171.52790862 C-94.52331144 161.93758889 -94.53200178 152.34737419 -94.55761147 142.7570858 C-94.57938104 134.58607232 -94.58733832 126.41518938 -94.57764468 118.24415018 C-94.57311771 114.08010827 -94.57489193 109.91633533 -94.59440613 105.75233078 C-94.61216692 101.92918379 -94.61093708 98.10649942 -94.59550884 94.28334663 C-94.59204826 92.26831992 -94.60806218 90.25328761 -94.62511331 88.23833007 C-94.45502364 63.77753646 -83.8565749 41.66957175 -66.5958252 24.56329346 C-48.15652449 6.9750374 -25.08041232 -0.01792891 0 0 Z " fill="#001834" transform="translate(94.1041259765625,5.85955810546875)"/>
<path d="M0 0 C1 1 1 1 1.11352539 4.69360352 C1.11336624 6.33871292 1.10766988 7.98382731 1.09765625 9.62890625 C1.09553383 10.92525246 1.09553383 10.92525246 1.09336853 12.24778748 C1.08775239 15.01939292 1.07519719 17.7909188 1.0625 20.5625 C1.05748708 22.4368478 1.05292381 24.31119685 1.04882812 26.18554688 C1.03777772 30.79039544 1.0205023 35.39518421 1 40 C-2.86863715 40.88807335 -4.59645419 41.08593815 -8.125 39.1875 C-22.67087458 32.35212154 -42.55550165 32.97214409 -57.67578125 37.74609375 C-73.1830466 43.59548526 -83.46747327 51.9024137 -90.40234375 67.06640625 C-97.19492342 83.42766338 -99.44857115 105.15050764 -93 122 C-92.6596875 123.0415625 -92.319375 124.083125 -91.96875 125.15625 C-87.21236293 138.9112072 -79.03355352 149.70197324 -65.9375 156.25 C-54.48453015 161.13416274 -43.62263448 162.26044483 -31.3125 162.375 C-30.27963867 162.38901855 -29.24677734 162.40303711 -28.18261719 162.41748047 C-21.72815385 162.37743528 -15.99068328 161.49490841 -9.77807617 159.74072266 C-6.85704644 158.96188407 -3.99970886 158.37749509 -1 158 C1.06971155 160.06971155 0.21248498 164.45288926 0.23828125 167.3046875 C0.25038887 168.55706711 0.25038887 168.55706711 0.26274109 169.83474731 C0.276597 171.60514235 0.28731239 173.37556426 0.29516602 175.14599609 C0.31238541 177.85695884 0.35625706 180.56670433 0.40039062 183.27734375 C0.41051654 184.99478267 0.41903296 186.71223199 0.42578125 188.4296875 C0.44328934 189.2422702 0.46079742 190.05485291 0.47883606 190.89205933 C0.45712755 196.51168535 0.45712755 196.51168535 -1.83935547 198.96484375 C-11.01330873 203.36004848 -20.94441578 204.74936231 -31 205 C-32.28076416 205.04664795 -32.28076416 205.04664795 -33.58740234 205.09423828 C-63.51328811 206.11031937 -89.51957696 199.88629753 -112 179 C-133.43630465 156.33966038 -140.63602257 126.82055449 -140.2109375 96.3046875 C-139.29366079 65.8986632 -129.24488568 39.09652131 -107.07421875 17.66796875 C-94.22385477 6.16451485 -78.91985954 -0.91064233 -62 -4 C-61.00613281 -4.20496094 -60.01226562 -4.40992188 -58.98828125 -4.62109375 C-40.80987276 -7.86324533 -16.63561166 -9.17911708 0 0 Z " fill="#00A8FD" transform="translate(455,158)"/>
<path d="M0 0 C13.53 0 27.06 0 41 0 C41 60.06 41 120.12 41 182 C71.03 182 101.06 182 132 182 C132 193.31757044 130.37338867 204.2528502 128.4375 215.375 C128.31076904 216.1064624 128.18403809 216.8379248 128.0534668 217.59155273 C127.12635035 222.74729929 127.12635035 222.74729929 126 225 C109.58891314 225.02332895 93.17783163 225.04097916 76.76673222 225.05181217 C69.14729827 225.05697514 61.52787461 225.06401784 53.90844727 225.07543945 C47.26971173 225.08538628 40.63098363 225.09185342 33.99224085 225.09408849 C30.47495664 225.09539561 26.95769374 225.09848147 23.44041634 225.10573006 C19.52025062 225.11374389 15.60010601 225.11399114 11.67993164 225.11352539 C10.50533386 225.11712067 9.33073608 225.12071594 8.12054443 225.12442017 C7.05898636 225.1230455 5.99742828 225.12167084 4.90370178 225.12025452 C3.97545625 225.12117631 3.04721071 225.1220981 2.09083652 225.12304783 C0 225 0 225 -1 224 C-1.10016 221.1323426 -1.13438808 218.28869423 -1.12698364 215.42053223 C-1.12854363 214.50975119 -1.13010362 213.59897016 -1.13171089 212.66058969 C-1.13572502 209.58425727 -1.13252965 206.50797349 -1.12939453 203.43164062 C-1.13074839 201.23609895 -1.13252823 199.0405575 -1.13470459 196.84501648 C-1.13928077 190.86378871 -1.13748861 184.88257811 -1.1343255 178.90135002 C-1.13180285 172.65709256 -1.13413917 166.41283662 -1.13571167 160.1685791 C-1.13765052 149.00744719 -1.13453274 137.84632161 -1.12945233 126.68519121 C-1.12498429 116.55558583 -1.12576022 106.4259919 -1.13037109 96.29638672 C-1.1357168 84.54684542 -1.13771772 72.79730971 -1.13475883 61.04776716 C-1.13319562 54.82312717 -1.13300349 48.59849508 -1.13629532 42.37385559 C-1.13917289 36.52334109 -1.13720045 30.67284834 -1.13140106 24.8223362 C-1.13007285 22.6683792 -1.13046861 20.51442039 -1.13266373 18.3604641 C-1.13537283 15.43344016 -1.13199706 12.50648712 -1.12698364 9.57946777 C-1.12921436 8.71538126 -1.13144509 7.85129476 -1.13374341 6.96102381 C-1.11414982 1.11414982 -1.11414982 1.11414982 0 0 Z " fill="#00A8FE" transform="translate(56,134)"/>
<path d="M0 0 C1.55906782 1.55906782 1.12722371 3.06154281 1.12939453 5.22851562 C1.13254669 6.12614624 1.13569885 7.02377686 1.13894653 7.9486084 C1.13591019 9.41264099 1.13591019 9.41264099 1.1328125 10.90625 C1.13376923 11.9012854 1.13472595 12.8963208 1.13571167 13.92150879 C1.1363936 16.02986718 1.13453844 18.13822765 1.13037109 20.24658203 C1.12502303 23.48605027 1.13031567 26.72537985 1.13671875 29.96484375 C1.13605797 32.00781281 1.13477681 34.05078178 1.1328125 36.09375 C1.13483673 37.06977173 1.13686096 38.04579346 1.13894653 39.0513916 C1.13421829 40.39783752 1.13421829 40.39783752 1.12939453 41.77148438 C1.12859894 42.56566772 1.12780334 43.35985107 1.12698364 44.17810059 C1 46 1 46 0 47 C-1.4062184 47.17905149 -2.81997937 47.29969133 -4.234375 47.39453125 C-18.33152878 48.45634439 -30.88924821 50.06708455 -43 58 C-44.03300594 58.63855329 -44.03300594 58.63855329 -45.08688068 59.29000664 C-47.17096376 60.82559952 -47.17096376 60.82559952 -47.50501537 63.11549568 C-47.50740373 63.937358 -47.50979208 64.75922031 -47.51225281 65.60598755 C-47.53095428 67.02358368 -47.53095428 67.02358368 -47.55003357 68.46981812 C-47.54013145 70.02220688 -47.54013145 70.02220688 -47.5300293 71.60595703 C-47.53876068 72.69718872 -47.54749207 73.78842041 -47.55648804 74.91271973 C-47.58093155 78.52791627 -47.57744905 82.14254364 -47.57421875 85.7578125 C-47.58665509 88.26220685 -47.60098683 90.76659245 -47.61714172 93.27096558 C-47.65135044 99.19477702 -47.66857227 105.11847595 -47.6769169 111.04236591 C-47.69366419 122.28752717 -47.7530173 133.5325295 -47.80869484 144.77755356 C-47.82410664 148.48087305 -47.83124462 152.1841357 -47.83683777 155.88748169 C-47.84385036 158.14259876 -47.85095099 160.39771556 -47.8581543 162.65283203 C-47.85736122 164.21129349 -47.85736122 164.21129349 -47.85655212 165.80123901 C-47.8605603 166.74066345 -47.86456848 167.68008789 -47.86869812 168.64797974 C-47.8699554 169.469088 -47.87121267 170.29019627 -47.87250805 171.1361866 C-48 173 -48 173 -49 174 C-52.01808063 174.101137 -55.01280513 174.13968909 -58.03125 174.1328125 C-58.93750122 174.13376923 -59.84375244 174.13472595 -60.77746582 174.13571167 C-62.69751047 174.13639353 -64.61755741 174.13453882 -66.53759766 174.13037109 C-69.48735704 174.12502292 -72.43696414 174.13031588 -75.38671875 174.13671875 C-77.24739617 174.13605797 -79.1080735 174.13477681 -80.96875 174.1328125 C-82.30153992 174.13584885 -82.30153992 174.13584885 -83.66125488 174.13894653 C-89.88505012 174.11494988 -89.88505012 174.11494988 -91 173 C-91.10677928 171.01718452 -91.14245369 169.03052884 -91.15148926 167.04486084 C-91.15983292 165.74966522 -91.16817657 164.4544696 -91.17677307 163.12002563 C-91.18108333 161.67083765 -91.18530708 160.2216494 -91.18945312 158.77246094 C-91.1973912 157.25647754 -91.2057788 155.74049643 -91.21458435 154.22451782 C-91.23268617 150.95003676 -91.24768667 147.67556091 -91.26036072 144.40105438 C-91.28056513 139.21380908 -91.30822673 134.02662017 -91.33703613 128.8394165 C-91.397222 117.80963761 -91.4488947 106.77982409 -91.5 95.75 C-91.55513116 83.88385035 -91.61193104 72.01771806 -91.67754889 60.1516211 C-91.70572709 55.00621524 -91.72938647 49.86081514 -91.74947357 44.71537161 C-91.76298265 41.49380708 -91.78038882 38.27227164 -91.79878426 35.05073166 C-91.80645852 33.5694211 -91.81256288 32.08810134 -91.81687737 30.60677719 C-91.8438075 21.69818394 -92.17769745 12.8746941 -93 4 C-87.64320272 3.90117311 -82.28693515 3.82855218 -76.92944336 3.78027344 C-75.1067582 3.76014941 -73.28413766 3.73284704 -71.46166992 3.69824219 C-68.84277412 3.64975732 -66.22473121 3.62703991 -63.60546875 3.609375 C-62.38188911 3.57840729 -62.38188911 3.57840729 -61.1335907 3.54681396 C-55.48974851 3.54457202 -55.48974851 3.54457202 -53.0246582 5.83691406 C-51.05548673 9.99389745 -50.73031816 13.62790298 -50.4375 18.1875 C-50.35371094 19.45980469 -50.26992187 20.73210937 -50.18359375 22.04296875 C-50.12300781 23.01878906 -50.06242187 23.99460938 -50 25 C-49.46632812 24.35933594 -48.93265625 23.71867187 -48.3828125 23.05859375 C-36.29709107 9.02828392 -19.15493233 -1.80772501 0 0 Z " fill="#00A7FD" transform="translate(301,185)"/>
</svg>
