<?xml version="1.0" encoding="UTF-8"?>
<svg version="1.1" xmlns="http://www.w3.org/2000/svg" width="512" height="512">
<path d="M0 0 C6.09046303 0.00513889 12.18092067 0.00034708 18.271384 -0.00277233 C28.48925509 -0.00638909 38.70709707 -0.00167328 48.92496371 0.00790882 C60.66409189 0.01879181 72.40315056 0.01525955 84.14227706 0.00425601 C94.30284582 -0.0048792 104.4633939 -0.00607203 114.62396544 -0.00086665 C120.65677499 0.00221869 126.68955208 0.00275877 132.72235942 -0.00393963 C212.85712443 -0.08054762 212.85712443 -0.08054762 237.01993442 11.26865101 C237.93516879 11.69790882 238.85040317 12.12716663 239.79337192 12.56943226 C262.7799147 24.26029571 280.04069145 44.76890517 288.12930942 69.18759632 C295.28735988 92.44034865 295.17190169 117.34106469 295.16519809 141.44028187 C295.16819756 143.61732509 295.17160187 145.79436778 295.1753757 147.9714098 C295.18414123 153.83766711 295.18655069 159.7039098 295.18719149 165.57017303 C295.1879064 169.25015489 295.19004904 172.93013314 295.1926887 176.6101141 C295.20191854 189.49116848 295.20602669 202.37221257 295.20523715 215.25327015 C295.20463748 227.19042889 295.21517374 239.12754229 295.23098081 251.06468958 C295.24413265 261.37023882 295.24941784 271.67577338 295.24878174 281.98133093 C295.24852893 288.11096901 295.2512585 294.24056675 295.26195979 300.37019634 C295.39121465 380.05882857 295.39121465 380.05882857 284.01993442 404.26865101 C283.5906766 405.18388538 283.16141879 406.09911976 282.71915317 407.04208851 C271.02808155 430.02904059 250.51981902 447.28846924 226.10123324 455.37802601 C202.57049744 462.62080029 177.31817094 462.42077965 152.93424106 462.41391468 C150.77837703 462.41691487 148.62251354 462.42031934 146.46665072 462.42409229 C140.66236695 462.43285038 134.85809796 462.43526696 129.05380821 462.43590808 C125.41150283 462.43662341 121.76920109 462.43876681 118.12689662 462.4414053 C105.37436191 462.45063258 92.62183759 462.45474359 79.86929965 462.45395374 C68.05653989 462.4533541 56.24382596 462.46389049 44.43107778 462.47969741 C34.22825196 462.4928545 24.02544096 462.49813422 13.82260674 462.49749833 C7.75610871 462.49724568 1.68965147 462.49996622 -4.37683797 462.51067638 C-104.55312842 462.67501293 -104.55312842 462.67501293 -136.98006558 431.26865101 C-165.89315858 401.08600294 -167.13630336 360.54854558 -167.12532926 321.09702015 C-167.12832872 318.91997693 -167.13173304 316.74293424 -167.13550687 314.56589222 C-167.1442724 308.69963491 -167.14668186 302.83339222 -167.14732265 296.96712899 C-167.14803757 293.28714713 -167.15018021 289.60716888 -167.15281987 285.92718792 C-167.16204971 273.04613354 -167.16615786 260.16508945 -167.16536832 247.28403187 C-167.16476865 235.34687312 -167.17530491 223.40975973 -167.19111198 211.47261244 C-167.20426382 201.1670632 -167.20954901 190.86152864 -167.20891291 180.55597109 C-167.2086601 174.42633301 -167.21138967 168.29673527 -167.22209096 162.16710567 C-167.38194357 63.63054431 -167.38194357 63.63054431 -136.51180387 30.80478382 C-100.8525743 -4.95675147 -46.4527876 -0.0516065 0 0 Z " fill="#1C9CF6" transform="translate(191.98006558418274,24.731348991394043)"/>
<path d="M0 0 C97.35 0 194.7 0 295 0 C288.25171694 7.8729969 288.25171694 7.8729969 285.58422852 10.51342773 C284.68783409 11.40486732 284.68783409 11.40486732 283.77333069 12.3143158 C283.14817062 12.93117752 282.52301056 13.54803925 281.87890625 14.18359375 C281.21592026 14.84279312 280.55293427 15.50199249 279.86985779 16.1811676 C277.06475934 18.97009346 274.25370319 21.7529851 271.44311523 24.53637695 C269.37792822 26.58332833 267.31586679 28.63339306 265.25390625 30.68359375 C264.63077042 31.29843124 264.00763458 31.91326874 263.36561584 32.54673767 C260.32060318 35.57500729 257.39624785 38.6517924 254.59350586 41.90649414 C250.68910118 46.42515522 246.49370222 50.61434815 242.25 54.8125 C241.43305664 55.62565674 240.61611328 56.43881348 239.77441406 57.27661133 C236.31304958 60.7217734 232.84571409 64.1609029 229.37890625 67.60058594 C226.83384812 70.12746508 224.29186869 72.65741315 221.75 75.1875 C220.97688477 75.95231689 220.20376953 76.71713379 219.40722656 77.50512695 C215.3275524 81.56653258 211.43438408 85.71567632 207.677948 90.07714844 C203.04217904 95.38952737 198.04580258 100.38102004 193.10620117 105.40869141 C191.75158093 106.79486713 190.4050823 108.18902973 189.06713867 109.59130859 C178.34825026 120.81559333 166.8263 131.09653083 150.6171875 132.23828125 C134.24641102 132.56296262 123.14551758 126.63910887 111.49461365 115.48036194 C108.83058711 112.84173791 106.31971888 110.06293971 103.78515625 107.30078125 C95.45847526 98.30600177 86.7667746 89.68957482 78.0625 81.0625 C74.98788641 78.01471941 71.91679126 74.96345262 68.84765625 71.91015625 C68.16212173 71.23292007 67.47658722 70.5556839 66.77027893 69.85792542 C63.56942758 66.673216 60.47775075 63.44960104 57.52905273 60.02905273 C53.78154488 55.68628003 49.76509553 51.65620291 45.6875 47.625 C44.91494873 46.85623535 44.14239746 46.0874707 43.34643555 45.29541016 C40.90005818 42.86114235 38.4504586 40.43015894 36 38 C32.76786312 34.79463822 29.53917465 31.58585927 26.3125 28.375 C25.58313232 27.65393066 24.85376465 26.93286133 24.10229492 26.18994141 C20.07574666 22.18245868 16.23247853 18.0821918 12.54075623 13.76341248 C9.72263344 10.5380399 6.63565892 7.59453059 3.56835938 4.60742188 C2.36238437 3.42151857 1.17880642 2.21291293 0 1 C0 0.67 0 0.34 0 0 Z " fill="#FEFEFE" transform="translate(109,157)"/>
<path d="M0 0 C3.19259029 1.52171257 5.3760584 3.11916887 7.890625 5.625 C8.59960938 6.33140625 9.30859375 7.0378125 10.0390625 7.765625 C10.76867187 8.50296875 11.49828125 9.2403125 12.25 10 C12.99507813 10.73734375 13.74015625 11.4746875 14.5078125 12.234375 C15.56355469 13.29398437 15.56355469 13.29398437 16.640625 14.375 C17.28547852 15.02210938 17.93033203 15.66921875 18.59472656 16.3359375 C20 18 20 18 20 20 C20.58652344 20.27199219 21.17304688 20.54398437 21.77734375 20.82421875 C23.95688333 21.97719136 25.65909709 23.25442289 27.5625 24.8125 C38.51876007 33.15721205 50.45305819 35.99123964 64 35 C78.93905907 32.74683393 89.54183158 25.44912938 100 15 C100.65597168 14.35095703 101.31194336 13.70191406 101.98779297 13.03320312 C106.35175098 8.7148614 110.68601851 4.36821893 115 0 C120.44468325 4.54240914 125.49997415 9.35725246 130.50561523 14.3762207 C131.32593735 15.1947905 132.14625946 16.01336029 132.99143982 16.85673523 C135.68300026 19.5439191 138.37091599 22.23471442 141.05859375 24.92578125 C142.93174379 26.79825744 144.805041 28.67058546 146.67848206 30.54277039 C150.59303574 34.4555112 154.50548997 38.37034198 158.41674805 42.28637695 C162.9428225 46.81791518 167.47251893 51.345809 172.00406879 55.87187129 C176.36807476 60.2308038 180.7292782 64.59252886 185.08928108 68.95546532 C186.94460602 70.81145938 188.8006797 72.66670528 190.65749931 74.52120399 C193.24080107 77.10198307 195.82090435 79.68591657 198.40014648 82.27075195 C199.17461121 83.04319244 199.94907593 83.81563293 200.74700928 84.61148071 C201.4436821 85.31097336 202.14035492 86.010466 202.85813904 86.7311554 C203.46849219 87.34188558 204.07884535 87.95261576 204.70769405 88.58185291 C206 90 206 90 206 91 C108.32 91 10.64 91 -90 91 C-83.25 83.125 -83.25 83.125 -80.08950806 79.96925354 C-79.01695267 78.89463615 -79.01695267 78.89463615 -77.92272949 77.79830933 C-77.15883911 77.03801422 -76.39494873 76.27771912 -75.60791016 75.49438477 C-74.37764603 74.2639016 -74.37764603 74.2639016 -73.12252808 73.00856018 C-70.43040493 70.3171297 -67.73476475 67.62925153 -65.0390625 64.94140625 C-63.16411824 63.06832847 -61.28937215 61.19505444 -59.41488647 59.32151794 C-54.99718043 54.90690868 -50.57693357 50.49485275 -46.15574777 46.08372873 C-41.11864834 41.05784199 -36.08441902 36.02908452 -31.05041814 31.00009453 C-20.70344935 20.66355267 -10.35291534 10.33058584 0 0 Z " fill="#FEFEFE" transform="translate(198,265)"/>
<path d="M0 0 C0.66 0 1.32 0 2 0 C2 61.05 2 122.1 2 185 C-5.875 178.25 -5.875 178.25 -9.03074646 175.08950806 C-10.10536385 174.01695267 -10.10536385 174.01695267 -11.20169067 172.92272949 C-12.34213333 171.77689392 -12.34213333 171.77689392 -13.50561523 170.60791016 C-14.32593735 169.78773407 -15.14625946 168.96755798 -15.99143982 168.12252808 C-18.6828703 165.43040493 -21.37074847 162.73476475 -24.05859375 160.0390625 C-25.93167153 158.16411824 -27.80494556 156.28937215 -29.67848206 154.41488647 C-34.09309132 149.99718043 -38.50514725 145.57693357 -42.91627127 141.15574777 C-47.94215801 136.11864834 -52.97091548 131.08441902 -57.99990547 126.05041814 C-68.33644733 115.70344935 -78.66941416 105.35291534 -89 95 C-87.28974534 91.33565049 -85.24002076 89.0654411 -82.3125 86.25 C-79.34667941 83.3902663 -76.53087061 80.48851864 -73.85546875 77.359375 C-68.74098615 71.45029493 -63.10406221 66.04629726 -57.54296875 60.56347656 C-52.43288087 55.51881433 -47.43548287 50.44756748 -42.765625 44.98828125 C-38.43736957 40.114206 -33.67100538 35.6367083 -29.02734375 31.06640625 C-24.73323672 26.81365499 -20.62394931 22.49679419 -16.68847656 17.91113281 C-13.81968565 14.6640398 -10.72028574 11.65428818 -7.625 8.625 C-6.38573581 7.41118271 -5.14864259 6.19514371 -3.9140625 4.9765625 C-3.3773291 4.45143066 -2.8405957 3.92629883 -2.28759766 3.38525391 C-0.88723997 2.0089621 -0.88723997 2.0089621 0 0 Z " fill="#FCFDFE" transform="translate(408,163)"/>
<path d="M0 0 C0.66 0 1.32 0 2 0 C3.26953125 1.29296875 3.26953125 1.29296875 4.8125 3.1875 C8.67222208 7.74310488 12.84887867 11.91054197 17.11645508 16.07885742 C19.97684005 18.89478722 22.69748003 21.76619915 25.3125 24.8125 C29.46685658 29.62014411 33.97375873 34.04526334 38.5 38.5 C47.59825598 47.45452366 47.59825598 47.45452366 51.40625 51.90625 C55.97229652 57.22534949 61.01196231 62.08216928 66 67 C71.70998565 72.62961722 77.36231201 78.2531727 82.57861328 84.3515625 C84.28022655 86.32498964 86.076432 88.17691298 87.9375 90 C88.52402344 90.5775 89.11054688 91.155 89.71484375 91.75 C90.13894531 92.1625 90.56304687 92.575 91 93 C89.59307782 96.18344808 87.92376029 98.32730303 85.47009277 100.78387451 C84.73820236 101.52140457 84.00631195 102.25893463 83.25224304 103.01881409 C82.44906143 103.81794724 81.64587982 104.61708038 80.81835938 105.44042969 C79.54989922 106.7141468 79.54989922 106.7141468 78.2558136 108.01359558 C75.93937607 110.33732357 73.61849891 112.65649769 71.29524422 114.97340679 C68.86550505 117.39808055 66.44065142 119.82763224 64.01501465 122.25640869 C59.94312607 126.33193394 55.86704242 130.40322784 51.78857422 134.47216797 C47.0689265 139.18091711 42.35654675 143.89684783 37.64784956 148.61654544 C33.60647529 152.66698369 29.56123155 156.71352641 25.51270342 160.75681424 C23.0938465 163.17254843 20.67637242 165.58962478 18.26237488 168.01021576 C15.57359241 170.70404935 12.87853078 173.39143517 10.18164062 176.07714844 C9.37845901 176.88437851 8.5752774 177.69160858 7.74775696 178.52330017 C7.01586655 179.24955093 6.28397614 179.9758017 5.52990723 180.72406006 C4.89278053 181.3604327 4.25565384 181.99680534 3.59922028 182.65246201 C2 184 2 184 0 184 C0 123.28 0 62.56 0 0 Z " fill="#FCFDFE" transform="translate(102,164)"/>
</svg>
